HIERARCHY
ROOT Hips
{
	OFFSET 0.000000 0.000000 0.000000
	CHANNELS 6 Xposition Yposition Zposition Xrotation Yrotation Zrotation
	JOINT LeftUpLeg_virtual
	{
		OFFSET 0.000000 0.000000 0.000000
		CHANNELS 3 Xrotation Yrotation Zrotation
		JOINT LeftUpLeg
		{
			OFFSET 13.026900 -6.336304 -1.092800
			CHANNELS 3 Xrotation Yrotation Zrotation
			JOINT LeftLeg
			{
				OFFSET 0.524474 -46.096886 9.782700
				CHANNELS 3 Xrotation Yrotation Zrotation
				JOINT LeftFoot
				{
					OFFSET -0.524474 -53.427422 -12.948200
					CHANNELS 3 Xrotation Yrotation Zrotation
					JOINT LeftToeBase
					{
						OFFSET 0.192200 -14.009700 16.364100
						CHANNELS 3 Xrotation Yrotation Zrotation
						JOINT LeftToe_End
						{
							OFFSET -1.784700 -0.561700 9.474800
							CHANNELS 3 Xrotation Yrotation Zrotation
							End Site
							{
								OFFSET 0 0 0
							}
						}
					}
				}
			}
		}
	}
	JOINT RightUpLeg_virtual
	{
		OFFSET 0.000000 0.000000 0.000000
		CHANNELS 3 Xrotation Yrotation Zrotation
		JOINT RightUpLeg
		{
			OFFSET -12.883000 -6.336304 -1.092800
			CHANNELS 3 Xrotation Yrotation Zrotation
			JOINT RightLeg
			{
				OFFSET -0.524587 -46.096825 9.782800
				CHANNELS 3 Xrotation Yrotation Zrotation
				JOINT RightFoot
				{
					OFFSET 0.524587 -53.427383 -12.948300
					CHANNELS 3 Xrotation Yrotation Zrotation
					JOINT RightToeBase
					{
						OFFSET -0.192200 -14.009700 16.364100
						CHANNELS 3 Xrotation Yrotation Zrotation
						JOINT RightToe_End
						{
							OFFSET 1.784700 -0.561700 9.474800
							CHANNELS 3 Xrotation Yrotation Zrotation
							End Site
							{
								OFFSET 0 0 0
							}
						}
					}
				}
			}
		}
	}
	JOINT Spine_virtual
	{
		OFFSET 0.000000 0.000000 0.000000
		CHANNELS 3 Xrotation Yrotation Zrotation
		JOINT Spine
		{
			OFFSET 0.072000 7.257294 -0.789700
			CHANNELS 3 Xrotation Yrotation Zrotation
			JOINT Spine1
			{
				OFFSET 0.000000 12.508769 -0.658067
				CHANNELS 3 Xrotation Yrotation Zrotation
				JOINT Spine1_split
				{
					OFFSET 0.000000 12.508769 -0.658067
					CHANNELS 3 Xrotation Yrotation Zrotation
					JOINT Spine2
					{
						OFFSET 0.000000 12.508769 -0.658067
						CHANNELS 3 Xrotation Yrotation Zrotation
						JOINT Neck_virtual
						{
							OFFSET 0.000000 0.000000 0.000000
							CHANNELS 3 Xrotation Yrotation Zrotation
							JOINT Neck
							{
								OFFSET 0.000000 14.033295 7.520400
								CHANNELS 3 Xrotation Yrotation Zrotation
								JOINT Head
								{
									OFFSET 0.000000 8.198502 5.703100
									CHANNELS 3 Xrotation Yrotation Zrotation
									JOINT HeadTop_End
									{
										OFFSET 0.000000 17.760803 13.332701
										CHANNELS 3 Xrotation Yrotation Zrotation
										End Site
										{
											OFFSET 0 0 0
										}
									}
								}
							}
						}
						JOINT LeftShoulder_virtual
						{
							OFFSET 0.000000 0.000000 0.000000
							CHANNELS 3 Xrotation Yrotation Zrotation
							JOINT LeftShoulder
							{
								OFFSET 6.292450 5.785301 -0.669000
								CHANNELS 3 Xrotation Yrotation Zrotation
								JOINT LeftShoulder_split
								{
									OFFSET 6.292450 5.785301 -0.669000
									CHANNELS 3 Xrotation Yrotation Zrotation
									JOINT LeftArm
									{
										OFFSET 13.907140 -6.093903 1.965100
										CHANNELS 3 Xrotation Yrotation Zrotation
										JOINT LeftForeArm
										{
											OFFSET 34.140198 0.000000 0.000000
											CHANNELS 3 Xrotation Yrotation Zrotation
											JOINT LeftHand
											{
												OFFSET 40.960209 0.000000 0.000000
												CHANNELS 3 Xrotation Yrotation Zrotation
												End Site
												{
													OFFSET 0 0 0
												}
											}
										}
									}
								}
							}
						}
						JOINT RightShoulder_virtual
						{
							OFFSET 0.000000 0.000000 0.000000
							CHANNELS 3 Xrotation Yrotation Zrotation
							JOINT RightShoulder
							{
								OFFSET -6.292450 5.785301 -0.669000
								CHANNELS 3 Xrotation Yrotation Zrotation
								JOINT RightShoulder_split
								{
									OFFSET -6.292450 5.785301 -0.669000
									CHANNELS 3 Xrotation Yrotation Zrotation
									JOINT RightArm
									{
										OFFSET -13.907140 -6.093903 1.965100
										CHANNELS 3 Xrotation Yrotation Zrotation
										JOINT RightForeArm
										{
											OFFSET -34.140198 0.000000 0.000000
											CHANNELS 3 Xrotation Yrotation Zrotation
											JOINT RightHand
											{
												OFFSET -40.960209 0.000000 0.000000
												CHANNELS 3 Xrotation Yrotation Zrotation
												End Site
												{
													OFFSET 0 0 0
												}
											}
										}
									}
								}
							}
						}
					}
				}
			}
		}
	}
}
MOTION
Frames: 6
Frame Time: 0.03333333
-2.303653 96.299049 -0.020229 0.000000 0.000000 0.000000 -8.216499 -63.085212 -4.086968 -25.671971 6.644208 26.576129 38.132178 -6.210872 -3.480640 -9.040064 -5.499471 -9.740011 -3.379147 -0.277890 -0.305909 0.000000 0.000000 0.000000 -10.327476 -58.902622 -3.913038 -24.153939 -14.836373 -23.233402 41.262932 4.511365 -6.572259 -14.875143 4.993751 18.875323 -9.816717 0.851796 0.069720 0.000000 0.000000 0.000000 -8.411655 -61.735819 -3.711039 9.634626 -1.588772 -0.518561 5.148133 -0.279915 -5.025984 1.694415 -10.100022 2.066476 0.000000 0.000000 0.000000 6.769727 0.241774 -4.324968 8.744923 21.409199 10.474355 12.785783 28.413635 -18.221305 0.000000 0.000000 0.000000 5.295428 -0.218109 -3.707973 -9.616676 -7.706020 -6.823650 1.050525 -3.278547 -2.078770 -18.567243 23.750231 -24.803376 11.971114 -44.410846 3.879428 0.000000 0.000000 0.000000 3.137359 -1.049084 -4.084110 -9.888478 2.386232 7.653152 -4.379585 1.150452 3.125334 -45.129283 -17.171046 42.513218 175.962352 65.486392 -161.050028 0.000000 0.000000 0.000000 
-2.920223 97.262703 1.382256 0.000000 0.000000 0.000000 -9.063745 -62.413859 -4.646185 -24.779390 7.373843 25.875094 37.398598 -6.260374 -3.133437 -8.714220 -5.577178 -9.210671 -3.388700 -0.285795 -0.105003 0.000000 0.000000 0.000000 -11.183969 -58.578018 -4.566104 -22.916214 -14.709878 -23.428230 40.499668 4.445123 -6.462844 -14.110382 4.956142 21.779938 -12.017636 0.917130 -0.397354 0.000000 0.000000 0.000000 -10.224065 -61.206493 -4.865803 8.994176 -1.972645 0.052859 4.766458 -0.450341 -4.451332 0.357124 -9.095467 1.657609 0.000000 0.000000 0.000000 5.786555 0.060097 -3.822074 9.952310 20.871875 10.606366 12.688734 27.639682 -17.184066 0.000000 0.000000 0.000000 4.760138 -0.401440 -3.415417 -9.449678 -7.859745 -8.089434 1.599545 -2.739655 -3.327092 -18.584742 22.260297 -27.129619 14.165805 -47.680854 5.885732 0.000000 0.000000 0.000000 3.015292 -1.111556 -3.652989 -10.056689 1.352720 9.138450 -3.723006 0.435780 1.873408 -41.325025 -15.890816 38.849774 173.224485 66.653193 -157.754571 0.000000 0.000000 0.000000 
-3.876656 99.187744 2.873707 0.000000 0.000000 0.000000 -10.281182 -60.034781 -5.434876 -22.643414 7.991259 23.616006 34.933071 -5.905714 -2.134658 -8.144872 -4.999626 -9.335503 -3.360823 -0.177662 -0.014447 0.000000 0.000000 0.000000 -11.925822 -56.592769 -5.241427 -19.138832 -15.881523 -23.500459 37.670337 3.389013 -6.075510 -13.875248 4.346438 23.435579 -11.136330 1.113237 -0.956555 0.000000 0.000000 0.000000 -11.515077 -59.334898 -5.814142 7.722314 -2.496596 1.001468 3.831266 -0.735563 -2.967561 -0.299373 -6.906149 1.188107 0.000000 0.000000 0.000000 4.061690 -0.252312 -2.313685 10.374477 19.413938 11.335453 13.843322 24.805789 -16.334117 0.000000 0.000000 0.000000 3.557859 -0.587927 -2.052344 -9.372357 -7.263966 -10.027088 1.313179 -1.570237 -4.476490 -16.266840 19.544158 -30.559503 18.636398 -53.189996 9.614019 0.000000 0.000000 0.000000 2.151696 -1.309789 -2.294199 -9.700787 0.074883 11.161179 -3.466586 1.466561 0.852853 -37.347853 -19.662897 29.319820 -175.207166 61.069193 -167.956770 0.000000 0.000000 0.000000 
-4.939833 101.497452 4.368885 0.000000 0.000000 0.000000 -11.786197 -56.839253 -6.360531 -19.566533 8.166213 20.121874 31.464219 -5.251186 -0.652835 -7.565324 -3.795011 -9.983496 -3.394099 0.047648 -0.136258 0.000000 0.000000 0.000000 -12.412858 -53.282425 -5.670669 -13.731843 -18.076581 -23.454562 33.961412 1.299729 -5.486342 -13.354256 3.121567 23.682339 -8.736067 1.366185 -1.299608 0.000000 0.000000 0.000000 -12.363671 -56.191082 -6.544756 6.273419 -2.997570 2.048686 2.547249 -0.949362 -0.938817 -0.176129 -4.629959 0.835933 0.000000 0.000000 0.000000 1.919308 -0.538215 -0.198231 9.381385 17.405525 12.762468 15.727264 20.662854 -15.836070 0.000000 0.000000 0.000000 1.860418 -0.680239 0.026298 -9.395604 -6.057273 -12.030778 0.686346 0.007916 -4.918029 -12.082652 16.381249 -33.540962 25.869615 -59.430562 15.671121 0.000000 0.000000 0.000000 0.684236 -1.545082 -0.370333 -8.902364 -1.100518 13.367706 -3.106662 3.756041 0.487250 -35.076348 -28.527938 16.842359 -162.625479 50.321344 -178.674798 0.000000 0.000000 0.000000 
-6.090442 103.729622 6.311195 0.000000 0.000000 0.000000 -13.361022 -53.170700 -7.137410 -16.223665 7.615718 15.879654 28.078862 -4.593509 1.134622 -7.003587 -2.253926 -10.958031 -3.634235 0.387728 -0.483529 0.000000 0.000000 0.000000 -12.803690 -49.189967 -5.868173 -7.742434 -20.575226 -23.237383 30.388512 -1.148728 -4.914339 -11.878833 1.487991 23.492910 -8.085174 1.506277 -0.999555 0.000000 0.000000 0.000000 -13.001095 -52.109436 -7.032285 5.005108 -3.273518 2.933332 1.109854 -1.026330 1.237957 -0.143341 -2.866426 0.579322 0.000000 0.000000 0.000000 -0.254208 -0.701648 2.009273 6.394436 15.084734 14.723286 17.545453 16.219167 -15.841931 0.000000 0.000000 0.000000 -0.046018 -0.640262 2.326825 -9.495774 -4.663042 -13.553304 0.399803 1.035737 -5.064524 -7.200443 13.429537 -34.971286 35.618012 -64.526505 24.089027 0.000000 0.000000 0.000000 -1.173726 -1.665265 1.717050 -7.982933 -2.024757 15.603145 -2.173340 7.343183 0.480367 -37.978481 -39.822356 3.216097 -153.319579 39.117108 174.094596 0.000000 0.000000 0.000000 
-6.960404 105.525696 8.334465 0.000000 0.000000 0.000000 -14.861923 -49.444211 -7.608440 -13.459656 6.074459 11.592650 25.970082 -4.206730 2.987186 -6.425741 -0.837781 -11.961436 -4.106236 0.793574 -0.954876 0.000000 0.000000 0.000000 -13.467361 -45.023818 -5.983448 -1.982705 -22.537352 -22.824515 27.523376 -3.317049 -4.643390 -9.328057 -0.174281 23.569127 -10.386093 1.338520 0.259649 0.000000 0.000000 0.000000 -13.638811 -47.505827 -7.273994 4.143124 -3.236636 3.469525 -0.304917 -0.912982 3.105551 -0.437017 -2.242254 0.442581 0.000000 0.000000 0.000000 -2.034357 -0.629967 3.889894 1.236313 12.713060 16.770302 18.650366 12.637940 -16.759524 0.000000 0.000000 0.000000 -1.778415 -0.488969 4.369516 -9.680212 -3.639818 -14.375205 0.759751 1.835354 -4.822300 -3.043067 11.354204 -34.500856 44.642393 -66.453137 31.686771 0.000000 0.000000 0.000000 -3.106122 -1.603035 3.618592 -7.185861 -2.540211 17.758704 -2.292657 9.935775 1.361470 -46.956738 -50.253667 -9.993350 -145.197896 31.751804 167.866953 0.000000 0.000000 0.000000 
